<!DOCTYPE svg PUBLIC "-//W3C//DTD SVG 1.1//EN" "http://www.w3.org/Graphics/SVG/1.1/DTD/svg11.dtd">
<svg class="icon" height="24" viewBox="0 0 1024 1024" version="1.1" xmlns="http://www.w3.org/2000/svg" fill="#999a"><path d="M941.568 605.184l-100.352-73.216c0.512-6.656 0.512-13.312 0.512-19.968s0-12.8-0.512-19.968l100.352-73.216c10.752-7.68 15.36-21.504 11.776-34.816-9.728-34.304-23.552-67.584-40.448-97.792-6.656-11.776-19.968-17.92-32.768-15.872l-123.392 19.456c-8.704-9.728-17.92-18.944-27.648-27.648l19.456-123.392c2.048-13.312-4.608-26.624-15.872-32.768-30.208-16.896-63.488-30.208-97.792-40.448-12.8-3.584-26.624 1.024-34.816 11.776l-73.216 100.352c-13.824-1.024-26.112-1.024-39.424 0L413.696 77.312c-7.68-10.752-21.504-15.36-34.816-11.776-34.304 9.728-67.584 23.552-97.792 40.448-11.776 6.656-17.92 19.456-15.872 32.768l19.456 123.392c-9.728 8.704-18.944 17.92-27.648 27.648L133.12 270.336c-13.312-2.048-26.112 4.096-32.768 15.872-16.896 30.208-30.72 63.488-40.448 97.792-3.584 12.8 1.024 26.624 11.776 34.816l100.352 73.216c-0.512 6.656-0.512 13.312-0.512 19.968s0 12.8 0.512 19.968L71.68 605.184c-10.752 7.68-15.36 21.504-11.776 34.816 9.728 34.304 23.552 67.584 40.448 97.792 6.656 11.776 19.968 17.92 32.768 15.872l123.392-19.456c8.704 9.728 17.92 18.944 27.648 27.648L265.216 885.76c-2.048 13.312 4.096 26.112 15.872 32.768 30.208 16.896 62.976 30.208 97.792 40.448 12.8 3.584 26.624-1.024 34.816-11.776l73.216-100.352c13.824 1.024 26.112 1.024 39.424 0l73.216 100.352c6.144 8.192 15.872 13.312 25.6 13.312 3.072 0 6.144-0.512 8.704-1.024 34.816-9.728 67.584-23.552 97.792-40.448 11.776-6.656 17.92-19.456 15.872-32.768l-19.456-123.392c9.728-8.704 18.944-17.92 27.648-27.648l123.392 19.456c13.312 2.048 26.112-4.096 32.768-15.872 16.896-30.208 30.72-63.488 40.448-97.792 5.12-14.336 0.512-28.16-10.752-35.84zM506.88 647.68c-74.752 0-135.68-60.928-135.68-135.68S432.128 376.32 506.88 376.32s135.68 60.928 135.68 135.68-60.928 135.68-135.68 135.68z"/></svg>